HIERARCHY
ROOT hip
{
	OFFSET 0.000000 0.000000 0.000000 
	CHANNELS 6 Xposition Yposition Zposition Xrotation Zrotation Yrotation
	JOINT abdomen
	{
		OFFSET 0.000000 3.402643 0.000000 
		CHANNELS 3 Xrotation Zrotation Yrotation
		JOINT chest
		{
			OFFSET 0.000000 8.438565 -0.680529 
			CHANNELS 3 Xrotation Zrotation Yrotation
			JOINT neck
			{
				OFFSET 0.000000 10.207942 -0.272212 
				CHANNELS 3 Xrotation Zrotation Yrotation
				JOINT head
				{
					OFFSET 0.000000 3.130431 0.000000 
					CHANNELS 3 Xrotation Zrotation Yrotation
					End Site
					{
						OFFSET 0.000000 3.130435 0.000000 
					}
				}
			}
			JOINT lCollar
			{
				OFFSET 3.470700 6.669187 -0.816635 
				CHANNELS 3 Yrotation Zrotation Xrotation
				JOINT lShldr
				{
					OFFSET 3.198488 0.000000 0.000000 
					CHANNELS 3 Zrotation Yrotation Xrotation
					JOINT lForeArm
					{
						OFFSET 10.139888 0.000000 0.000000 
						CHANNELS 3 Yrotation Zrotation Xrotation
						JOINT lHand
						{
							OFFSET 8.370511 0.000000 0.000000 
							CHANNELS 3 Zrotation Yrotation Xrotation
							End Site
							{
								OFFSET 4.083176 0.000000 0.000000 
							}
						}
					}
				}
			}
			JOINT rCollar
			{
				OFFSET -3.470700 6.669187 -0.816635 
				CHANNELS 3 Yrotation Zrotation Xrotation
				JOINT rShldr
				{
					OFFSET -3.198488 0.000000 0.000000 
					CHANNELS 3 Zrotation Yrotation Xrotation
					JOINT rForeArm
					{
						OFFSET -10.139888 0.000000 0.000000 
						CHANNELS 3 Yrotation Zrotation Xrotation
						JOINT rHand
						{
							OFFSET -8.370511 0.000000 0.000000 
							CHANNELS 3 Zrotation Yrotation Xrotation
							End Site
							{
								OFFSET -4.083176 0.000000 0.000000 
							}
						}
					}
				}
			}
		}
	}
	JOINT lThigh
	{
		OFFSET 5.308129 -1.633274 1.361059 
		CHANNELS 3 Xrotation Zrotation Yrotation
		JOINT lShin
		{
			OFFSET -2.041588 -20.007561 0.000000 
			CHANNELS 3 Xrotation Zrotation Yrotation
			JOINT lFoot
			{
				OFFSET 0.000000 -19.190928 -1.224953 
				CHANNELS 3 Xrotation Yrotation Zrotation
				End Site
				{
					OFFSET 0.000000 -2.449906 4.627600 
				}
			}
		}
	}
	JOINT rThigh
	{
		OFFSET -5.308129 -1.633274 1.361059 
		CHANNELS 3 Xrotation Zrotation Yrotation
		JOINT rShin
		{
			OFFSET 2.041588 -20.007561 0.000000 
			CHANNELS 3 Xrotation Zrotation Yrotation
			JOINT rFoot
			{
				OFFSET 0.000000 -19.190928 -1.224953 
				CHANNELS 3 Xrotation Yrotation Zrotation
				End Site
				{
					OFFSET 0.000000 -2.449906 4.627600 
				}
			}
		}
	}
}
MOTION
Frames: 13
Frame Time: 0.016667
1.060471 45.865696 0.002356 9.981900 -5.723180 -6.699700 -21.723700 3.168840 -1.755290 18.094900 1.463490 -0.336329 5.522399 -0.742964 -27.786148 2.194586 8.934533 -16.634380 2.000000 -2.000000 0.000000 -86.407097 2.392630 -159.057999 72.295502 -0.256426 0.130291 -179.919998 -179.899994 4.562690 -2.000000 2.000000 0.000000 80.327400 0.700576 -153.436005 -69.717300 0.262243 0.128246 179.891998 179.871002 -5.105240 -12.863452 5.532297 -1.816629 13.705438 2.871411 1.087230 -1.908054 7.582103 1.196143 -11.151914 4.305986 4.198472 7.650066 -1.514956 -1.013127 -2.876325 -9.741220 -2.424942 
1.091959 45.870586 -0.016515 10.030600 -5.703090 -6.710950 -21.595900 3.134420 -1.680660 18.202400 1.395310 -0.301482 5.625275 -0.870700 -27.797878 2.190213 9.011269 -16.605442 2.000000 -2.000000 0.000000 -86.299599 2.158380 -158.998993 72.217300 -0.256604 0.130234 -179.919998 -179.899994 4.562690 -2.000000 2.000000 0.000000 80.415298 0.925289 -153.483994 -69.541496 0.262636 0.128100 179.891998 179.871002 -5.017350 -12.918468 5.497451 -1.793294 13.617039 2.860812 1.067829 -1.839533 7.537191 1.215431 -11.166251 4.242464 4.169634 7.541816 -1.506917 -1.005718 -2.761901 -9.701800 -2.408093 
1.114094 45.876247 -0.041972 10.109100 -5.701710 -6.718710 -21.527500 3.137170 -1.645740 18.261000 1.414880 -0.281305 5.813485 -0.921636 -27.701481 2.127722 9.075656 -16.549419 2.000000 -2.000000 0.000000 -86.280098 1.963050 -159.007996 72.100098 -0.256870 0.130149 -179.919998 -179.899994 4.533390 -2.000000 2.000000 0.000000 80.415298 1.081520 -153.473999 -69.375504 0.263007 0.127961 179.891998 179.871002 -4.939230 -12.975484 5.494418 -1.821218 13.514510 2.827879 1.075413 -1.756347 7.537162 1.208950 -11.308075 4.230277 4.144985 7.569412 -1.522425 -1.025352 -2.765521 -9.685399 -2.392214 
1.130146 45.881649 -0.071998 10.216700 -5.680570 -6.667340 -21.468800 3.132820 -1.629680 18.309799 1.463720 -0.272247 5.915876 -0.901637 -27.616287 2.087492 9.075124 -16.511421 2.000000 -2.000000 0.000000 -86.279999 1.748230 -158.998001 71.963402 -0.257180 0.130048 -179.919998 -179.889999 4.465050 -2.000000 2.000000 0.000000 80.415298 1.247510 -153.464005 -69.209503 0.263377 0.127821 179.893005 179.871002 -4.880610 -13.076680 5.484189 -1.838247 13.411360 2.797971 1.083894 -1.683038 7.477013 1.212028 -11.367092 4.185880 4.120748 7.407486 -1.483880 -1.017716 -2.647322 -9.699273 -2.408079 
1.142749 45.885777 -0.100320 10.305000 -5.679000 -6.607670 -21.429701 3.134890 -1.596470 18.299999 1.483220 -0.263500 5.827874 -0.821562 -27.607540 2.115056 9.031066 -16.526035 2.000000 -2.000000 0.000000 -86.250702 1.562790 -158.949005 71.826698 -0.257491 0.129947 -179.910004 -179.889999 4.347870 -2.000000 2.000000 0.000000 80.425102 1.374490 -153.473007 -69.043503 0.263747 0.127680 179.893005 179.871002 -4.890380 -13.211293 5.476120 -1.882609 13.371967 2.793570 1.074255 -1.643827 7.425667 1.199414 -11.375592 4.128688 4.053931 7.143286 -1.411035 -1.021179 -2.501714 -9.713747 -2.463366 
1.148445 45.889366 -0.129199 10.393300 -5.677410 -6.528480 -21.429501 3.123560 -1.571050 18.241400 1.492920 -0.255645 5.703393 -0.736785 -27.605423 2.156615 8.955481 -16.546549 2.000000 -2.000000 0.000000 -86.211502 1.406710 -158.869995 71.719299 -0.257734 0.129867 -179.919998 -179.899002 4.250190 -2.000000 2.000000 0.000000 80.444603 1.491690 -153.483002 -68.887199 0.264095 0.127546 179.891998 179.871002 -4.939230 -13.325543 5.477618 -1.977817 13.307639 2.768850 1.082268 -1.566896 7.402929 1.216421 -11.520705 4.126702 3.989237 7.209625 -1.427788 -1.020256 -2.503605 -9.729700 -2.448663 
1.142547 45.894005 -0.168096 10.521300 -5.694300 -6.378570 -21.429300 3.113280 -1.598490 18.202299 1.541670 -0.268433 5.694040 -0.678380 -27.507484 2.142545 8.933289 -16.512804 2.000000 -2.000000 0.000000 -86.182198 1.211620 -158.772003 71.602097 -0.257999 0.129779 -179.919998 -179.899002 4.259960 -2.000000 2.000000 0.000000 80.473999 1.647960 -153.492004 -68.691902 0.264530 0.127377 179.893005 179.871002 -4.929460 -13.518609 5.508745 -2.033616 13.255603 2.734628 1.099335 -1.500660 7.243532 1.190474 -11.570559 4.095059 3.907390 6.946001 -1.351737 -1.023802 -2.363398 -9.819361 -2.525084 
1.137234 45.895424 -0.191550 10.589900 -5.693030 -6.307230 -21.379999 3.096170 -1.588620 18.221800 1.541690 -0.267907 5.740539 -0.631565 -27.409651 2.121708 8.912595 -16.473595 2.000000 -2.000000 0.000000 -86.142998 0.957975 -158.654007 71.465401 -0.258309 0.129675 -179.910004 -179.889999 4.396690 -2.000000 2.000000 0.000000 80.513100 1.872610 -153.511002 -68.496597 0.264964 0.127207 179.893005 179.871002 -4.792720 -13.647014 5.531703 -2.041381 13.267342 2.725832 1.098198 -1.492554 7.165940 1.201006 -11.695290 4.112207 3.805216 7.040933 -1.372784 -1.012276 -2.398130 -9.818628 -2.506123 
1.135492 45.892593 -0.191261 10.580500 -5.712410 -6.368420 -21.282301 3.095010 -1.508510 18.299999 1.492980 -0.234587 5.764527 -0.605215 -27.302904 2.113284 8.892271 -16.432102 2.000000 -2.000000 0.000000 -86.103798 0.655545 -158.516998 71.279800 -0.258728 0.129534 -179.919998 -179.899994 4.523630 -2.000000 2.000000 0.000000 80.561996 2.146180 -153.569000 -68.301300 0.265397 0.127036 179.893005 179.871994 -4.548580 -13.665677 5.542431 -2.061185 13.345924 2.735500 1.117515 -1.499262 7.246176 1.212586 -11.754122 4.140255 3.729556 7.155214 -1.396598 -1.000629 -2.466802 -9.692644 -2.482398 
1.128684 45.888603 -0.188971 10.561000 -5.722380 -6.436620 -21.204000 3.087710 -1.416900 18.329399 1.444220 -0.192865 5.706436 -0.551483 -27.200190 2.124184 8.861297 -16.391598 2.000000 -2.000000 0.000000 -86.093903 0.343306 -158.399002 71.074799 -0.259192 0.129376 -179.919998 -179.899994 4.582220 -2.000000 2.000000 0.000000 80.591400 2.429550 -153.647003 -68.115799 0.265808 0.126871 179.893997 179.871994 -4.284910 -13.661663 5.554965 -2.071216 13.412850 2.747475 1.108047 -1.534264 7.342995 1.222333 -11.715979 4.148485 3.665313 7.104301 -1.359532 -1.039433 -2.452112 -9.550447 -2.466124 
1.108576 45.887188 -0.210137 10.610300 -5.731070 -6.335860 -21.194201 3.087920 -1.416360 18.261000 1.463670 -0.185604 5.571178 -0.541296 -27.061441 2.159964 8.831031 -16.345028 2.000000 -2.000000 0.000000 -86.113403 0.069977 -158.350006 70.859901 -0.259676 0.129209 -179.921005 -179.899994 4.611520 -2.000000 2.000000 0.000000 80.581703 2.712810 -153.675995 -67.900902 0.266284 0.126679 179.893997 179.873001 -4.040770 -13.757496 5.583012 -2.090224 13.444696 2.739716 1.116451 -1.546878 7.246071 1.215927 -11.862079 4.184983 3.511467 7.304091 -1.406077 -1.036182 -2.557291 -9.502783 -2.465701 
1.082664 45.884872 -0.237021 10.649500 -5.730330 -6.222570 -21.184601 3.093800 -1.428490 18.202299 1.512390 -0.198871 5.328219 -0.581911 -26.940371 2.238497 8.822739 -16.286686 2.000000 -2.000000 0.000000 -86.171997 -0.271797 -158.339005 70.645103 -0.260160 0.129040 -179.921005 -179.899994 4.621280 -2.000000 2.000000 0.000000 80.513397 3.074140 -153.675003 -67.656799 0.266823 0.126459 179.895004 179.873001 -3.806400 -13.836610 5.624342 -2.100452 13.381931 2.704769 1.114068 -1.507066 7.130508 1.230561 -11.856181 4.156149 3.396271 7.159566 -1.331522 -1.046565 -2.506730 -9.484707 -2.517156 
1.051091 45.881649 -0.261327 10.669300 -5.739560 -6.118900 -21.155399 3.105790 -1.452190 18.192499 1.570930 -0.211309 4.969188 -0.612127 -26.804838 2.356691 8.799387 -16.247324 2.000000 -2.000000 0.000000 -86.220802 -0.740525 -158.328003 70.381401 -0.260753 0.128830 -179.919998 -179.899994 4.582220 -2.000000 2.000000 0.000000 80.415703 3.533020 -153.625000 -67.393097 0.267404 0.126219 179.895004 179.873993 -3.581790 -13.999841 5.641212 -2.117372 13.556544 2.730155 1.123859 -1.565492 7.046252 1.222070 -12.023054 4.198240 3.278851 7.412991 -1.360775 -1.060721 -2.630405 -9.476448 -2.515180 
